<svg id="logos-svg" xmlns="http://www.w3.org/2000/svg">
    <svg id="github" viewBox="0 0 32 32" style="stroke:none;fill:currentColor;fill-opacity:1">
        <path d="M15.953 0C7.133 0 0 7.332 0 16.406c0 7.25 4.57 13.39 10.906 15.563.793.164 1.086-.352 1.086-.785 0-.383-.027-1.688-.027-3.043-4.438.976-5.363-1.957-5.363-1.957-.711-1.903-1.77-2.391-1.77-2.391-1.453-1.004.106-1.004.106-1.004 1.613.11 2.457 1.684 2.457 1.684 1.425 2.5 3.722 1.793 4.648 1.359.133-1.062.555-1.793 1.004-2.203-3.54-.379-7.262-1.79-7.262-8.094 0-1.793.633-3.258 1.637-4.398-.16-.407-.715-2.094.16-4.348 0 0 1.344-.434 4.383 1.684 1.3-.36 2.64-.54 3.988-.543 1.348 0 2.719.191 3.988.543 3.036-2.118 4.383-1.684 4.383-1.684.871 2.254.317 3.941.16 4.348 1.028 1.14 1.637 2.605 1.637 4.398 0 6.305-3.723 7.688-7.289 8.094.582.52 1.082 1.496 1.082 3.043 0 2.2-.027 3.965-.027 4.508 0 .437.293.953 1.082.789 6.34-2.172 10.91-8.313 10.91-15.563C31.906 7.332 24.746 0 15.953 0Zm0 0" style="fill-rule:evenodd;"/>
    </svg>
    <svg id="modrinth" viewBox="0 0 32 32" style="stroke:none;fill:currentColor;fill-opacity:1">
        <path d="M31.45 20.145a15.79 15.79 0 0 0 0-8.27C29.16 3.375 20.378-1.668 11.831.609A15.962 15.962 0 0 0 .043 14.348H2.75a13.223 13.223 0 0 1 9.734-11.13c6.645-1.769 13.461 1.805 15.84 8.075l-2.637.7a10.491 10.491 0 0 0-6.542-5.966l-.485 2.73a7.72 7.72 0 0 1 4.813 5.247c.988 3.664-.852 7.422-4.188 8.98l.719 2.676c4.387-1.8 7.02-6.344 6.398-11.02l2.625-.699a13.084 13.084 0 0 1-.242 5.239Zm0 0" style="fill-rule:evenodd;"/>
        <path d="M20.125 31.39C11.578 33.669 2.797 28.626.508 20.126A15.97 15.97 0 0 1 0 17.148h2.703c.07.743.203 1.489.402 2.23.211.782.485 1.524.82 2.231l2.41-1.441a10.983 10.983 0 0 1-.51-1.461c-1.5-5.578 1.827-11.312 7.433-12.809a10.684 10.684 0 0 1 3.176-.347l-.485 2.73a7.908 7.908 0 0 0-1.98.262c-4.137 1.105-6.594 5.336-5.485 9.453.07.254.149.504.239.742l3.086-1.843-.93-2.454 2.914-2.98 3.68-.79 1.066 1.306-1.695 1.71-1.48.465-1.06 1.082.52 1.438s1.047 1.11 1.051 1.11l1.48-.391 1.055-1.157 2.305-.726.687 1.539-2.379 2.902-3.98 1.258-1.79-1.98-3.112 1.859a7.781 7.781 0 0 0 6.484 2.605l.723 2.676a10.542 10.542 0 0 1-9.594-3.851l-2.402 1.433a13.305 13.305 0 0 0 14 4.762 13.219 13.219 0 0 0 8.488-6.961l2.664.965a15.948 15.948 0 0 1-10.379 8.676Zm0 0" style="fill-rule:nonzero;"/>
    </svg>
    <svg id="discord" viewBox="0 0 32 32" style="stroke:none;fill:currentColor;fill-opacity:1">
        <path transform="translate(0 4)" d="M20.492 0a18.12 18.12 0 0 0-.847 1.7 24.88 24.88 0 0 0-7.305 0 16.395 16.395 0 0 0-.848-1.7 26.774 26.774 0 0 0-6.586 2.016C.746 8.133-.383 14.094.18 19.973a26.547 26.547 0 0 0 8.074 4.02 18.95 18.95 0 0 0 1.73-2.766 17.67 17.67 0 0 1-2.722-1.286c.23-.164.453-.336.668-.5a19.096 19.096 0 0 0 16.144 0c.219.176.442.348.668.5-.87.508-1.781.942-2.73 1.293A19.64 19.64 0 0 0 23.742 24a26.557 26.557 0 0 0 8.078-4.016c.66-6.82-1.133-12.73-4.742-17.964A26.37 26.37 0 0 0 20.5.012ZM10.7 16.352c-1.574 0-2.879-1.415-2.879-3.16 0-1.75 1.254-3.172 2.871-3.172 1.618 0 2.903 1.43 2.875 3.171-.023 1.743-1.265 3.16-2.867 3.16Zm10.602 0c-1.578 0-2.871-1.415-2.871-3.16 0-1.75 1.254-3.172 2.87-3.172 1.618 0 2.895 1.43 2.872 3.171-.027 1.743-1.27 3.16-2.871 3.16Zm0 0" style="fill-rule:nonzero;"/>
    </svg>
    <svg id="java" viewBox="0 0 32 32" style="stroke:none;fill:currentColor;fill-opacity:1">
        <path d="M15.84 5.93c-1.477 1.039-3.152 2.218-4.05 4.168-1.56 3.402 3.19 7.113 3.394 7.27a.26.26 0 0 0 .328-.009.264.264 0 0 0 .066-.32c-.02-.035-1.723-3.348-1.66-5.723.023-.828 1.18-1.765 2.406-2.761 1.125-.91 2.395-1.942 3.14-3.149 1.638-2.656-.183-5.27-.198-5.297a.263.263 0 0 0-.32-.086.265.265 0 0 0-.153.293c.004.02.36 1.747-.625 3.528-.406.734-1.297 1.36-2.328 2.086Zm0 0"/>
        <path d="M22.07 7.102a.262.262 0 0 0 .075-.336.268.268 0 0 0-.325-.121c-.25.097-6.152 2.37-6.152 5.12 0 1.891.809 2.895 1.402 3.626.23.285.43.53.496.742.188.61-.253 1.71-.437 2.086a.258.258 0 0 0 .062.312c.09.078.223.086.32.016.102-.07 2.481-1.75 2.055-3.774-.16-.773-.539-1.335-.87-1.832-.52-.765-.891-1.324-.325-2.347.664-1.2 3.668-3.469 3.7-3.492Zm0 0"/>
        <path d="M6.715 18.64a.926.926 0 0 0 .137.868c.64.887 2.906 1.379 6.378 1.379.473 0 .97-.012 1.477-.028 5.555-.199 7.617-1.93 7.7-2.004a.265.265 0 0 0 .062-.32.265.265 0 0 0-.301-.133c-1.957.535-5.61.727-8.145.727-2.835 0-4.277-.207-4.632-.356.183-.25 1.3-.695 2.687-.968a.258.258 0 0 0 .211-.282.26.26 0 0 0-.262-.238c-.812 0-4.886.067-5.312 1.356ZM25.3 16.86c-1.145 0-2.23.57-2.278.597a.255.255 0 0 0-.128.293c.027.117.132.2.25.2.027 0 2.445.019 2.664 1.402.195 1.191-2.29 3.125-3.262 3.77a.264.264 0 0 0-.098.32c.051.117.172.18.297.156.23-.051 5.652-1.246 5.078-4.403-.351-1.933-1.566-2.336-2.523-2.336Zm-3.715 5.874a.264.264 0 0 0-.11-.261l-1.3-.91a.248.248 0 0 0-.215-.04c-.016.004-1.375.36-3.348.579-.781.09-1.66.136-2.535.136-1.973 0-3.262-.234-3.45-.402-.026-.047-.019-.07-.01-.082.03-.094.214-.207.331-.254a.255.255 0 0 0 .16-.32.263.263 0 0 0-.312-.18c-1.3.316-1.942.754-1.895 1.309.082.98 2.356 1.484 4.274 1.617.277.015.574.027.886.027 3.196 0 7.286-1 7.329-1.012a.265.265 0 0 0 .195-.207Zm-9.797 2.106a.267.267 0 0 0 .106-.3.27.27 0 0 0-.258-.185c-.176.008-1.707.075-1.817 1.051-.03.293.051.559.25.793.551.656 2.04 1.043 4.547 1.188.297.02.598.027.895.027 3.187 0 5.336-1 5.425-1.039a.267.267 0 0 0 .024-.465l-1.64-1a.275.275 0 0 0-.192-.035 40.72 40.72 0 0 1-2.625.434c-.3.039-.672.062-1.11.062-1.57 0-3.32-.258-3.656-.426-.004-.03.004-.07.051-.105Zm0 0"/>
        <path d="M14.027 30.43c7.301-.008 11.223-1.305 11.977-2.125.266-.29.297-.563.273-.742-.054-.438-.457-.708-.504-.739a.263.263 0 0 0-.343.39c.047.06.074.157-.063.294-.3.281-3.344 1.137-8.414 1.394-.695.035-1.422.055-2.164.055-4.539 0-7.863-.621-8.297-.984.168-.243 1.344-.63 2.59-.848a.26.26 0 0 0 .219-.297.26.26 0 0 0-.297-.219 9.377 9.377 0 0 1-.293.02c-2.063.125-4.445.406-4.57 1.469-.036.324.058.617.289.87.554.63 2.156 1.462 9.593 1.462Zm0 0"/>
        <path d="M27.438 28.535a.263.263 0 0 0-.301.059c-.012.011-1.11 1.16-4.41 1.836-1.266.254-3.637.383-7.051.383-3.422 0-6.68-.137-6.711-.137a.255.255 0 0 0-.27.226.259.259 0 0 0 .2.29c.03.007 3.445.808 8.109.808a38.15 38.15 0 0 0 6.473-.54c3.835-.67 4.101-2.573 4.113-2.655a.262.262 0 0 0-.152-.27Zm0 0"/>
    </svg>
</svg>
